<svg width="30532" height="19368" viewBox="0 0 30532 19368" fill="none" xmlns="http://www.w3.org/2000/svg">
<path opacity="0.1" d="M8225.8 21.6077C11418.7 326.749 14011.2 2448.6 16887.9 3772.71C17528.9 4067.79 18200.8 4327.62 18911.1 4404.57C21264.3 4659.61 23434.1 2892.28 25798.2 3036.59C27714.3 3153.56 29339.3 4570.68 30028.7 6237.57C30718.1 7904.46 30612.4 9768.87 30229.5 11518.7C29630.1 14251.3 28302.1 16939.6 25990.5 18717C25609.1 19010.4 25183 19284.8 24693.1 19351.5C23876.6 19463.9 23119.6 18980.9 22413 18581.5C19224.2 16778.5 15192.9 16320.7 11632.6 17357.1C10426.9 17708.1 9273.63 18220.1 8039.71 18472.7C5663.55 18958.3 2974.63 18344.7 1361.34 16651C-251.95 14957.2 -514.251 12173.3 1022.82 10418.7C1664.49 9686.41 2548.9 9169.37 3222.51 8462.73C4915.1 6688.93 4290.25 4895.48 4080.82 2815.34C3874.48 765.644 6360.51 -156.491 8225.8 21.6077Z" fill="#6C63FF"/>
<path d="M15516 13315.3L15510.2 13251.2C15677.6 13242.7 15845.5 13225.5 16009.1 13200.1L16026.5 13263.1C15859 13289 15687.3 13306.6 15516 13315.3ZM15000.2 13309.6C14827 13297.9 14655.8 13279.4 14491.4 13254.4L14508.4 13191.4C14669.8 13215.9 14837.8 13234.1 15007.9 13245.6L15000.2 13309.6ZM16522.7 13159L16493.9 13098.4C16651.7 13056.4 16807 13005.7 16955.7 12947.9L16995.3 13004.9C16843.1 13064.1 16684.2 13116 16522.7 13159ZM13994.1 13154.9C13829.7 13113.6 13669.4 13064.3 13517.7 13008.3L13555.7 12950.7C13703.9 13005.4 13860.6 13053.6 14021.4 13094L13994.1 13154.9ZM13072.8 12813.6C12931.1 12740.8 12795.6 12659.7 12670 12572.5L12728.4 12525.3C12850.9 12610.4 12983.1 12689.5 13121.3 12760.5L13072.8 12813.6ZM17435.1 12804.1L17385.5 12751.7C17522.2 12679.2 17653.5 12599.1 17775.9 12513.4L17834.4 12560.4C17709.3 12648 17574.9 12730 17435.1 12804.1ZM12318.6 12289.4C12211.9 12189.6 12113.4 12082.5 12026.1 11971.2L12100.1 11938.6C12185.3 12047.3 12281.4 12151.8 12385.6 12249.2L12318.6 12289.4ZM18186.2 12278.4L18119.7 12237.8C18225.6 12140.4 18323.4 12036.7 18410.5 11929.7L18483.8 11963.2C18394.7 12072.7 18294.6 12178.7 18186.2 12278.4ZM11796.5 11625.6C11731.4 11507.7 11676 11384.6 11631.9 11259.8L11714.9 11243.4C11758 11365.4 11812.2 11485.7 11875.8 11601L11796.5 11625.6ZM18721.3 11620.5L18642.6 11594.9C18709.4 11479.9 18766.1 11360.2 18811.3 11239.3L18893.9 11256.6C18847.7 11380.3 18789.7 11502.8 18721.3 11620.5ZM11532.9 10881.2C11511 10754.2 11499.8 10624.6 11499.6 10496.2L11585.5 10496.2C11585.6 10621.9 11596.6 10748.6 11618.1 10873L11532.9 10881.2ZM18998.2 10878.6L18913.2 10870C18935.7 10746.1 18947.1 10619.5 18947.1 10493.6L18947.1 10487.8H19032.9L19032.9 10493.4C19032.9 10622.4 19021.3 10751.9 18998.2 10878.6ZM11617.2 10119.3L11532 10111.2C11553.8 9983.47 11586.8 9856.02 11630.1 9732.43L11713.2 9748.75C11670.8 9869.66 11638.5 9994.36 11617.2 10119.3ZM18912.2 10111.6C18889.2 9987.3 18854.6 9863.09 18809.2 9742.49L18891.8 9725.07C18938.3 9848.48 18973.7 9975.59 18997.2 10102.9L18912.2 10111.6ZM11873.2 9391.02L11793.8 9366.54C11859.5 9247.16 11936.4 9130.82 12022.4 9020.73L12096.5 9053.18C12012.4 9160.71 11937.3 9274.38 11873.2 9391.02ZM18639.6 9387.38C18572.7 9272.7 18494.4 9160.27 18406.9 9053.21L18480.2 9019.66C18569.7 9129.22 18649.8 9244.28 18718.3 9361.65L18639.6 9387.38ZM18115.6 8745.72C18009.6 8648.65 17893.7 8556.06 17771.1 8470.55L17829.6 8423.5C17955.1 8511 18073.6 8605.73 18182 8705.05L18115.6 8745.72ZM12381.1 8742.35L12314 8702.27C12421.2 8601.6 12539 8506.25 12664.2 8418.85L12722.7 8465.87C12600.6 8551.13 12485.7 8644.14 12381.1 8742.35ZM17380.1 8232.78C17242.9 8160.42 17098 8094.54 16949.4 8036.96L16988.9 7979.87C17140.9 8038.78 17289.2 8106.2 17429.5 8180.24L17380.1 8232.78ZM13114.9 8230.03L13066.2 8177.09C13206.4 8104.77 13355.9 8039 13510.6 7981.58L13548.7 8039.18C13397.7 8095.23 13251.7 8159.45 13114.9 8230.03ZM14014 7895.1L13986.6 7834.19C14146 7793.92 14313.2 7760.23 14483.6 7734.09L14500.8 7797.05C14333.9 7822.67 14170.1 7855.66 14014 7895.1ZM16487.1 7887.03C16329.2 7845.21 16165.8 7811.23 16001.5 7786L16018.7 7723.04C16186.9 7748.85 16354.1 7783.63 16515.7 7826.43L16487.1 7887.03ZM15000.1 7742.23L14992.3 7678.24C15078.2 7672.33 15166.5 7668.02 15254.8 7665.41C15338.3 7664.68 15424.9 7667.45 15508.1 7671.55L15502.4 7735.7C15421.1 7731.69 15338.4 7729.66 15256.5 7729.66C15171.4 7732.2 15084.6 7736.46 15000.1 7742.23Z" fill="#3F3D56"/>
<path d="M6530.94 15350.7C6527.65 15747 6500.17 16142.7 6448.67 16535.2C6446.87 16549 6444.91 16562.8 6443.1 16576.6L2929.81 16555.9C2919.49 16542.2 2909.34 16528.3 2899.5 16514.3C2866.7 16467.9 2835.96 16420.2 2807.74 16370.8C2672.09 16133 2610 15854.5 2672.22 15662.4L2673.34 15659.4C2686.77 15617.3 2707.94 15578.5 2735.63 15545C2877.51 15376.3 3164.38 15404.5 3424.7 15540.6C3191.21 15270.6 3005.28 14929.9 2991.16 14625.8C2977.3 14329.2 3124.13 14117.3 3283.38 13937.2C3288.61 13931.3 3293.83 13925.5 3299.06 13919.7C3301.59 13916.7 3304.28 13913.9 3306.81 13910.9C3431.06 13773.7 3575.91 13638.4 3785.58 13654.8C4015.53 13672.7 4270.48 13876.2 4449.24 14113.3C4628 14350.2 4746.79 14619.4 4867.19 14882.1C4987.75 15144.6 5118.19 15413.8 5311.65 15638.2C5049.62 15288.1 4838.35 14889.7 4760.31 14502.3C4682.27 14114.8 4750.95 13742.7 4984.49 13560.3C5055.38 13506.6 5137.42 13471.6 5223.74 13458.3C5233.81 13456.5 5244.05 13455.1 5254.44 13453.8C5470.63 13427.8 5728.74 13506.8 5948.35 13695.6C6190.21 13903.5 6357.89 14211.7 6441.32 14504.2C6524.74 14796.8 6533.63 15078.4 6530.94 15350.7Z" fill="#CAEBA8"/>
<path d="M9583.3 10013.1C9558.34 9974.62 9525.39 9942.16 9486.78 9918.04C9448.18 9893.92 9404.84 9878.71 9359.84 9873.49C9314.84 9868.28 9269.27 9873.17 9226.33 9887.84C9183.38 9902.5 9144.12 9926.58 9111.3 9958.38L8133 9444L8193.82 10023.5L9113.5 10423.1C9169.59 10475.7 9242.68 10505.6 9318.92 10506.9C9395.17 10508.3 9469.26 10481.2 9527.17 10430.7C9585.08 10380.1 9622.77 10309.7 9633.12 10232.8C9643.46 10155.8 9625.74 10077.6 9583.3 10013.1Z" fill="#FFB8B8"/>
<path d="M8713.43 10247.1C8695.72 10255.4 8676.51 10259.8 8657.03 10260C8637.55 10260.2 8618.24 10256.2 8600.37 10248.3L7670.88 9837.5C7353.06 9697.08 7096.13 9443.8 6947.86 9124.79L6459.21 8073.79C6423.14 8026.58 6396.57 7972.59 6381 7914.91C6365.43 7857.23 6361.17 7796.99 6368.46 7737.63C6375.76 7678.27 6394.47 7620.96 6423.52 7568.97C6452.57 7516.98 6491.39 7471.34 6537.76 7434.65C6584.14 7397.96 6637.16 7370.95 6693.78 7355.15C6750.41 7339.36 6809.54 7335.09 6867.79 7342.6C6926.04 7350.1 6982.26 7369.24 7033.25 7398.9C7084.23 7428.57 7128.98 7468.18 7164.93 7515.48L8023.86 9139.29L8816.98 9749.76C8839.68 9767.32 8856.54 9791.55 8865.29 9819.19C8874.03 9846.83 8874.24 9876.53 8865.87 9904.29L8788.03 10160.5C8779.67 10188 8763.29 10212.2 8741.07 10229.9C8732.56 10236.8 8723.28 10242.5 8713.43 10247.1Z" fill="#478F96"/>
<path d="M6438 6838C6856.08 6838 7195 6492.81 7195 6067C7195 5641.19 6856.08 5296 6438 5296C6019.92 5296 5681 5641.19 5681 6067C5681 6492.81 6019.92 6838 6438 6838Z" fill="#FFB8B8"/>
<path d="M6745.09 16182H7122.45L7302 14698H6745L6745.09 16182Z" fill="#FFB8B8"/>
<path d="M5512.09 16182H5890.13L6070 14698H5512L5512.09 16182Z" fill="#FFB8B8"/>
<path d="M5380.34 15756.8C5367.32 15741.6 5357.63 15723.8 5351.92 15704.6C5346.21 15685.3 5344.6 15665 5347.22 15645.1L6008.55 10591L7651.64 10875.3L7827 10768.1L7373.55 15563.4C7369.77 15595.8 7355.16 15625.9 7332.17 15648.5C7309.18 15671.2 7279.22 15685.1 7247.34 15687.9L6749.82 15730.1C6730.04 15731.8 6710.13 15729.2 6691.45 15722.3C6672.77 15715.5 6655.74 15704.7 6641.53 15690.5C6627.31 15676.4 6616.24 15659.4 6609.05 15640.5C6601.87 15621.7 6598.74 15601.4 6599.88 15581.3L6728.69 13297.5C6728.91 13293.7 6727.72 13289.8 6725.34 13286.8C6722.95 13283.8 6719.55 13281.7 6715.79 13281.1C6712.02 13280.5 6708.16 13281.3 6704.96 13283.4C6701.75 13285.5 6699.43 13288.8 6698.43 13292.5L6061.17 15700.5C6053.21 15730.5 6035.78 15756.9 6011.59 15775.8C5987.4 15794.7 5957.79 15805 5927.31 15805H5484.65C5464.9 15805 5445.37 15800.7 5427.38 15792.4C5409.39 15784.1 5393.35 15771.9 5380.34 15756.8Z" fill="#2F2E41"/>
<path d="M6518.55 10945.5C6499.68 10928.1 6475.43 10917.9 6450.01 10916.9C6424.59 10915.8 6399.59 10923.8 6379.37 10939.6L6050.81 11200C6032.93 11214.2 6011.9 11223.7 5989.57 11227.7C5967.23 11231.7 5944.28 11230 5922.71 11222.9C5901.15 11215.7 5881.64 11203.3 5865.89 11186.7C5850.15 11170.1 5838.65 11149.7 5832.4 11127.5C5671.24 10552.4 5306.1 9104.73 5396.05 8085.82C5447.04 7508.27 5936.49 7069.33 6487.12 7106.16C6863.56 7131.73 7111.22 7353.01 7223.21 7763.83C7498.17 8772.51 7800.35 10622.7 7858.13 10983.4C7862.7 11011.4 7858.85 11040.1 7847.1 11065.8C7835.35 11091.6 7816.25 11113 7792.29 11127.5C7636.84 11222.6 7459.22 11273.5 7277.9 11275C7058.52 11275 6795.46 11197.2 6518.55 10945.5Z" fill="#478F96"/>
<path d="M6641.98 11304.3C6645.66 11258.3 6639.39 11212 6623.62 11168.7C6607.85 11125.4 6582.96 11086.2 6550.7 11053.8C6518.44 11021.4 6479.6 10996.6 6436.91 10981.1C6394.22 10965.6 6348.73 10959.9 6303.63 10964.3L5845.3 9944L5542 10438.5L6023.73 11331.6C6035.99 11408.3 6075.44 11477.7 6134.61 11526.8C6193.78 11575.8 6268.55 11601.1 6344.75 11597.7C6420.96 11594.3 6493.31 11562.6 6548.09 11508.5C6602.87 11454.4 6636.27 11381.8 6641.98 11304.3Z" fill="#FFB8B8"/>
<path d="M5816.98 10941.1C5798.03 10936.5 5780.25 10927.9 5764.79 10915.8C5749.33 10903.7 5736.54 10888.5 5727.25 10871L5244.62 9963.22C5079.56 9652.87 5030.78 9292 5107.33 8947.74L5359.4 7813.44C5359.63 7753.62 5371.43 7694.44 5394.12 7639.27C5416.81 7584.1 5449.96 7534.03 5491.65 7491.92C5533.35 7449.81 5582.78 7416.48 5637.13 7393.85C5691.48 7371.21 5749.67 7359.71 5808.38 7360.01C5867.09 7360.3 5925.17 7372.38 5979.3 7395.55C6033.42 7418.72 6082.54 7452.54 6123.83 7495.06C6165.12 7537.59 6197.78 7587.98 6219.94 7643.38C6242.11 7698.77 6253.34 7758.07 6252.99 7817.88L5945.35 9635.78L6199.74 10614.9C6206.97 10643 6205.56 10672.7 6195.7 10699.9C6185.84 10727.1 6168.01 10750.6 6144.61 10767.2L5928.16 10919.9C5904.94 10936.2 5877.37 10945 5849.14 10945C5838.31 10945 5827.51 10943.7 5816.98 10941.1Z" fill="#478F96"/>
<path opacity="0.2" d="M6190.92 8585L5914 9777.66L6314 10782L6037.08 9809.04L6190.92 8585Z" fill="black"/>
<path d="M6006.12 6700.91C5938.81 6702.18 5871.92 6689.85 5809.32 6664.63C5781.77 6653.81 5753.18 6644.92 5725.68 6634.09C5482.86 6538.49 5322.9 6274.97 5317.18 6009.77C5311.45 5744.56 5446.22 5487.16 5646.35 5317.52C5846.48 5147.89 6105.7 5060.8 6365.26 5040.65C6644.85 5018.96 6959.68 5091.21 7115.92 5328.49C7157.5 5391.65 7186.59 5468.27 7161.95 5544.53C7154.56 5567.54 7141.38 5588.18 7123.72 5604.37C7053.95 5667.62 6984.39 5620.06 6913.26 5615.86C6815.5 5610.08 6727.69 5690.72 6696.13 5785.19C6664.57 5879.65 6678.46 5983.65 6703.95 6080C6723.36 6137.98 6735.6 6198.2 6740.38 6259.27C6742.43 6289.89 6736.78 6320.54 6723.96 6348.31C6711.13 6376.08 6691.56 6400.05 6667.1 6417.96C6606.01 6455.59 6525.78 6433.81 6464.66 6396.24C6403.53 6358.67 6350.71 6306.44 6284.69 6278.79C6218.66 6251.15 6129.96 6257.28 6091.53 6318.58C6079.31 6340.88 6071.05 6365.2 6067.1 6390.43C6032.65 6550.38 6040.57 6540.96 6006.12 6700.91Z" fill="#2F2E41"/>
<path d="M23796.6 16577.1L23366.1 16577.1L23161.3 15333.6L23796.7 15333.6L23796.6 16577.1Z" fill="#FFB6B6"/>
<path d="M22321.8 16569.8C22308.4 16586.7 22301.3 16641.3 22301.3 16660.9C22301.3 16721.3 22366.7 16770.3 22447.4 16770.3H23780.5C23835.5 16770.3 23880.1 16736.9 23880.1 16695.7V16654.1C23880.1 16654.1 23946.1 16529.2 23810.3 16375.2C23810.3 16375.2 23641.6 16495.8 23389.4 16306.9L23315.1 16206.1L22776.8 16500.9L22478.5 16528.4C22413.2 16534.4 22355.3 16527.4 22321.8 16569.8Z" fill="#2F2E41"/>
<path d="M26816.5 16394L26393.3 16452.8L25888.7 15258.3L26513.4 15171.4L26816.5 16394Z" fill="#FFB6B6"/>
<path d="M25364.7 16588.5C25355.6 16606.9 25362 16661.5 25366.8 16680.9C25381.5 16740.3 25457.8 16779.5 25537.1 16768.5L26847.8 16586.2C26901.9 16578.6 26937.6 16539.7 26927.6 16499.2L26917.4 16458.3C26917.4 16458.3 26951.8 16326.4 26780.8 16193.6C26780.8 16193.6 26644.3 16335.2 26350.3 16184.1L26252.6 16095L25795.3 16458.5L25508.7 16526.3C25446 16541.2 25387.4 16542.3 25364.7 16588.5Z" fill="#2F2E41"/>
<path d="M25761.7 10431.8L26822 15748.4L25834.9 15844.9L24118.3 11634.6L23903.8 15973.4H22983.8C22983.8 15973.4 22189.2 11184.6 22424.2 10606.1C22659.2 10027.6 25761.7 10431.8 25761.7 10431.8Z" fill="#2F2E41"/>
<path d="M23474.6 6170.9H24504.6L24654.8 6444.09C24654.8 6444.09 25255.6 6701.2 25255.6 6797.62C25255.6 6894.04 25620.4 9320.56 25620.4 9320.56L25813.5 10654.3C25813.5 10654.3 23560.4 11506 22444.7 10638.3L22659.2 9159.86C22659.2 9159.86 22487.6 6845.83 22573.4 6749.41C22659.2 6652.99 23303 6428.02 23303 6428.02L23474.6 6170.9Z" fill="#2F80ED"/>
<path d="M26694 11202.8C26738.9 11414.5 26629.4 11603.4 26449.6 11624.8C26269.7 11646.1 26087.6 11491.9 26042.7 11280.2C26023.1 11187.6 26033.1 11099.3 26065.5 11027.5L25890.6 10128.9L26455.4 10076.4L26567.9 10967.8C26628.5 11028.5 26674.4 11110.2 26694 11202.8Z" fill="#FFB6B6"/>
<path d="M24497.2 6620.64C24497.2 6620.64 25385.3 6471.78 25546.7 6840.63C25708 7209.48 26677.6 10708.2 26677.6 10708.2L25939 10769.4L25384.3 8372.45L24497.2 6620.64Z" fill="#2F80ED"/>
<path d="M24024.9 5991.99C24514 5991.99 24910.4 5695.08 24910.4 5328.82C24910.4 4962.57 24514 4665.66 24024.9 4665.66C23535.8 4665.66 23139.4 4962.57 23139.4 5328.82C23139.4 5695.08 23535.8 5991.99 24024.9 5991.99Z" fill="#FFB6B6"/>
<path d="M24543 5891.91C24486.2 5893.98 24411.3 5885.88 24401.8 5843.91C24395 5814.3 24428.4 5788.78 24459.8 5770.08C24503.5 5744.01 24549.7 5719.71 24587.3 5688.72C24624.9 5657.72 24653.8 5618.53 24654.5 5576.66C24655.3 5534.79 24622 5491.11 24568.5 5478.92C24515 5466.74 24448.2 5496.53 24447.4 5538.39C24395.9 5479.74 24389 5405.84 24386.3 5335.65C24384.7 5294.57 24384 5253.48 24384.2 5212.39C24384.5 5156.25 24386.4 5100.12 24388.3 5044C24351.4 5042.55 24054 5126.37 24011.1 5126.37C23974.1 5126.37 23677.6 5082.29 23697.4 5019.03C23691.5 5059.46 23408.7 5132.29 23402.9 5111.13C23397.1 5089.96 23376 5067.63 23347.2 5068.89C23316.9 5070.22 23300.4 5095.42 23290.2 5116.87C23267.4 5164.76 23212.1 5247.53 23152.8 5222.79C22703.9 5035.57 23065.8 4977.26 23119 4901.13C23184.3 4807.54 23254.1 4710.17 23370.4 4650.46C23486.7 4590.75 23578.6 4519.46 23670.2 4599.75C23900.1 4474.25 24128.1 4504.52 24396.1 4576.08C24664 4647.65 24878.4 4822.73 24950.3 5028.84C24983.3 5123.32 25071.7 5164.77 25005.8 5249.06C25078.4 5321.95 25039.1 5280.71 25053.4 5371C25064.8 5442.24 25055.3 5517.43 25008.1 5579.88C24957.7 5646.58 24868.5 5692.99 24773.2 5720.8C24677.8 5748.61 24661.3 5888.31 24560 5899.25" fill="#2F2E41"/>
<path d="M19098.8 10254.4C18890.5 10401.4 18620.5 10440.1 18495.6 10340.8C18370.7 10241.5 18438.4 10041.9 18646.6 9894.99C18737.8 9830.66 18840.8 9787.09 18938.3 9766.75L19831.2 9152.35L20207.3 9472.31L19287.1 10044C19254.2 10115.7 19190 10190.1 19098.8 10254.4Z" fill="#FFB6B6"/>
<path d="M23152.5 6585.5C23152.5 6585.5 23466.4 6940.74 23367.3 7086.87C23268.3 7233.01 21722.7 8635.46 21722.7 8635.46L19857.8 9785.6L19311.2 9422.32L21067.7 8167.4L22202.7 6913.86C22383.3 6655.83 22773.1 6521.07 23152.5 6585.5Z" fill="#2F80ED"/>
<rect x="17864" y="10782" width="1661" height="1459" fill="#FFC061"/>
<path d="M11267.6 9684.44L11981.9 8914.08L13034 7873L13042.6 9675.98L11267.6 9684.44Z" fill="#90C0FF"/>
<ellipse cx="12423" cy="12176.5" rx="945" ry="855.5" fill="#F29595"/>
<path d="M15900 12033L16936.6 13684.5H14863.4L15900 12033Z" fill="#A1E87E"/>
<path d="M7761 16665.9L6576.1 16666L6576.08 16136.1L7303.18 16136C7424.59 16136 7541.04 16191.8 7626.9 16291.2C7712.76 16390.6 7760.99 16525.4 7761 16665.9Z" fill="#2F2E41"/>
<path d="M6530.92 16665.9L5346.02 16666L5346 16136.1L6073.1 16136C6194.51 16136 6310.96 16191.8 6396.82 16291.2C6482.67 16390.6 6530.91 16525.4 6530.92 16665.9Z" fill="#2F2E41"/>
<path d="M14703 8332L15484.5 7104H16832.8L17663 8332H14703Z" fill="#61A962"/>
<path d="M14703 8332L15484.5 7104H16832.8L17663 8332H14703Z" stroke="#61A962"/>
<path d="M14703 8332L15484.5 7104H16832.8L17663 8332H14703Z" stroke="black" stroke-opacity="0.2"/>
<path d="M28019 14267C28019 14267 26512.5 13355.4 27041.7 12723.2C27571 12091 28019 14267 28019 14267Z" fill="#CAEBA8"/>
<path d="M27992.6 14480C27992.6 14480 27300.5 11488.9 28319.6 11632C29338.8 11775 27992.6 14480 27992.6 14480Z" fill="#CAEBA8"/>
<path d="M27488 14215L27517 14715.4L27517.5 14724C27517.5 14802.2 27520.5 14880.3 27526.5 14958C27565.9 15468.4 27735.2 15701 27933.2 15701C28131.1 15701 28293.1 15468.4 28332.5 14958C28338.5 14880.3 28341.5 14802.2 28341.5 14724L28341.7 14717.1L28341.9 14715.4L28371 14215H27488Z" fill="#AFBFFB"/>
<path d="M28342 14715L28341.9 14716.7L28341.7 14723.7C28341.7 14801.9 28338.7 14880.1 28332.7 14958H27526.4C27520.4 14880.1 27517.4 14801.9 27517.5 14723.7L27517 14715H28342Z" fill="#CAC8C8"/>
</svg>
